<svg width="393" height="188" viewBox="0 0 393 188" fill="none" xmlns="http://www.w3.org/2000/svg">
<rect x="196" y="55" width="69" height="3" rx="1.5" fill="#1562AF" fill-opacity="0.14"/>
<rect x="83" y="55" width="106" height="3" rx="1.5" fill="#1562AF" fill-opacity="0.14"/>
<rect x="-16" y="55" width="92" height="3" rx="1.5" fill="#1562AF" fill-opacity="0.14"/>
<rect x="271" y="55" width="77" height="3" rx="1.5" fill="#1562AF" fill-opacity="0.34"/>
<rect x="312" y="66" width="36" height="3" rx="1.5" fill="#1562AF" fill-opacity="0.14"/>
<rect x="168" y="66" width="137" height="3" rx="1.5" fill="#1562AF" fill-opacity="0.14"/>
<rect x="56" y="66" width="105" height="3" rx="1.5" fill="#1562AF" fill-opacity="0.34"/>
<rect x="-16" y="66" width="65" height="3" rx="1.5" fill="#1562AF" fill-opacity="0.14"/>
<rect x="-16" width="144" height="3" rx="1.5" fill="#1562AF" fill-opacity="0.14"/>
<rect x="135" width="136" height="3" rx="1.5" fill="#1562AF" fill-opacity="0.34"/>
<rect width="46" height="3" rx="1.5" transform="matrix(-1 0 0 1 324 0)" fill="#1562AF" fill-opacity="0.14"/>
<rect x="106" y="11" width="111" height="3" rx="1.5" fill="#1562AF" fill-opacity="0.14"/>
<rect x="106" y="152" width="111" height="3" rx="1.5" fill="#1562AF" fill-opacity="0.14"/>
<rect x="-16" y="11" width="115" height="3" rx="1.5" fill="#1562AF" fill-opacity="0.34"/>
<rect x="-16" y="152" width="115" height="3" rx="1.5" fill="#1562AF" fill-opacity="0.34"/>
<rect x="259" y="11" width="28" height="3" rx="1.5" fill="#1562AF" fill-opacity="0.34"/>
<rect x="224" y="11" width="28" height="3" rx="1.5" fill="#1562AF" fill-opacity="0.14"/>
<rect x="224" y="152" width="37" height="3" rx="1.5" fill="#1562AF" fill-opacity="0.14"/>
<rect x="294" y="11" width="83" height="3" rx="1.5" fill="#1562AF" fill-opacity="0.14"/>
<rect x="268" y="22" width="89" height="3" rx="1.5" fill="#1562AF" fill-opacity="0.14"/>
<rect x="268" y="163" width="19" height="3" rx="1.5" fill="#1562AF" fill-opacity="0.14"/>
<rect x="118" y="22" width="143" height="3" rx="1.5" fill="#1562AF" fill-opacity="0.34"/>
<rect x="118" y="163" width="143" height="3" rx="1.5" fill="#1562AF" fill-opacity="0.34"/>
<rect x="79" y="22" width="32" height="3" rx="1.5" fill="#1562AF" fill-opacity="0.14"/>
<rect x="79" y="163" width="32" height="3" rx="1.5" fill="#1562AF" fill-opacity="0.14"/>
<rect x="-16" y="22" width="88" height="3" rx="1.5" fill="#1562AF" fill-opacity="0.14"/>
<rect x="-16" y="163" width="88" height="3" rx="1.5" fill="#1562AF" fill-opacity="0.14"/>
<rect x="333" y="33" width="60" height="3" rx="1.5" fill="#1562AF" fill-opacity="0.34"/>
<rect x="185" y="33" width="142" height="3" rx="1.5" fill="#1562AF" fill-opacity="0.14"/>
<rect x="185" y="174" width="51" height="3" rx="1.5" fill="#1562AF" fill-opacity="0.14"/>
<rect x="243" y="174" width="62" height="3" rx="1.5" fill="#1562AF" fill-opacity="0.34"/>
<rect x="147" y="33" width="31" height="3" rx="1.5" fill="#1562AF" fill-opacity="0.14"/>
<rect x="90" y="33" width="51" height="3" rx="1.5" fill="#1562AF" fill-opacity="0.14"/>
<rect x="90" y="174" width="88" height="3" rx="1.5" fill="#1562AF" fill-opacity="0.14"/>
<rect x="16" y="33" width="67" height="3" rx="1.5" fill="#1562AF" fill-opacity="0.34"/>
<rect x="-16" y="174" width="99" height="3" rx="1.5" fill="#1562AF" fill-opacity="0.34"/>
<rect x="-16" y="33" width="25" height="3" rx="1.5" fill="#1562AF" fill-opacity="0.14"/>
<rect x="-16" y="44" width="72" height="3" rx="1.5" fill="#1562AF" fill-opacity="0.34"/>
<rect x="-16" y="185" width="72" height="3" rx="1.5" fill="#1562AF" fill-opacity="0.14"/>
<rect x="63" y="44" width="97" height="3" rx="1.5" fill="#1562AF" fill-opacity="0.14"/>
<rect x="63" y="185" width="55" height="3" rx="1.5" fill="#1562AF" fill-opacity="0.34"/>
</svg>
